<svg xmlns="http://www.w3.org/2000/svg" viewBox="0 0 100 172" width="100%" height="100%" preserveAspectRatio="xMidYMax meet" aria-hidden="true" focusable="false" style="--ihr-leaf-a:#4A6B51;--ihr-leaf-b:#6B8F6B;--ihr-leaf-c:#9CBE97;--ihr-stem:#5F7F5F;--ihr-pot:#B8865F;--ihr-pot-shade:#966744"><g transform="rotate(0.6 50 126)">
    <g fill="none" stroke="var(--ihr-stem, #4A7C59)" stroke-width="2.2" stroke-linecap="round">
      <path d="M40 106 C 34 122 36 142 30 160"/>
      <path d="M62 106 C 70 124 66 146 72 166"/>
      <path d="M44 102 C 34 94 28 86 31 76"/>
    </g>
    <g transform="translate(36 119) rotate(18) scale(0.62)">
      <path d="M0 0 C 8 3 12 11 9 18 C 6 24 1 25 0 22 C -1 25 -6 24 -9 18 C -12 11 -8 3 0 0 Z" fill="var(--ihr-leaf-b, #3F7A52)"/>
    </g>
    <g transform="translate(34 138) rotate(-14) scale(0.7)">
      <path d="M0 0 C 8 3 12 11 9 18 C 6 24 1 25 0 22 C -1 25 -6 24 -9 18 C -12 11 -8 3 0 0 Z" fill="var(--ihr-leaf-a, #2F5D3F)"/>
    </g>
    <g transform="translate(31 155) rotate(8) scale(0.55)">
      <path d="M0 0 C 8 3 12 11 9 18 C 6 24 1 25 0 22 C -1 25 -6 24 -9 18 C -12 11 -8 3 0 0 Z" fill="var(--ihr-leaf-c, #6FA97B)"/>
    </g>
    <g transform="translate(66 120) rotate(-22) scale(0.58)">
      <path d="M0 0 C 8 3 12 11 9 18 C 6 24 1 25 0 22 C -1 25 -6 24 -9 18 C -12 11 -8 3 0 0 Z" fill="var(--ihr-leaf-c, #6FA97B)"/>
    </g>
    <g transform="translate(68 143) rotate(14) scale(0.72)">
      <path d="M0 0 C 8 3 12 11 9 18 C 6 24 1 25 0 22 C -1 25 -6 24 -9 18 C -12 11 -8 3 0 0 Z" fill="var(--ihr-leaf-b, #3F7A52)"/>
    </g>
    <g transform="translate(71 163) rotate(-6) scale(0.5)">
      <path d="M0 0 C 8 3 12 11 9 18 C 6 24 1 25 0 22 C -1 25 -6 24 -9 18 C -12 11 -8 3 0 0 Z" fill="var(--ihr-leaf-a, #2F5D3F)"/>
    </g>
    <g transform="translate(31 77) rotate(168) scale(0.66)">
      <path d="M0 0 C 8 3 12 11 9 18 C 6 24 1 25 0 22 C -1 25 -6 24 -9 18 C -12 11 -8 3 0 0 Z" fill="var(--ihr-leaf-b, #3F7A52)"/>
    </g>
    
    <path d="M26 106 L30 126 H70 L74 106 Z"
          fill="var(--ihr-pot, #C97B4E)"/>
    <path d="M50 106 L70 126 H50 Z"
          fill="var(--ihr-pot-shade, #A45E37)" opacity=".35"/>
    <rect x="23" y="98" width="54" height="9" rx="3"
          fill="var(--ihr-pot, #C97B4E)"/>
    <rect x="23" y="104" width="54" height="3"
          fill="var(--ihr-pot-shade, #A45E37)" opacity=".45"/>
    <ellipse cx="50" cy="102" rx="23" ry="3"
             fill="var(--ihr-soil, #4A3A2C)"/></g></svg>
