<svg xmlns="http://www.w3.org/2000/svg" viewBox="0 0 100 126" width="100%" height="100%" preserveAspectRatio="xMidYMax meet" aria-hidden="true" focusable="false" style="--ihr-leaf-a:#54632F;--ihr-leaf-b:#6F8244;--ihr-leaf-c:#A3B16A;--ihr-stem:#66783E;--ihr-pot:#B8865F;--ihr-pot-shade:#966744"><g transform="rotate(0.9 50 126)">
    
    <g transform="translate(50 98) rotate(-31) scale(0.72)">
      <path d="M0 0 C -6 -22 -8 -50 -3 -76 C -1.5 -80 1.5 -80 3 -76 C 8 -50 6 -22 0 0 Z" fill="var(--ihr-leaf-a, #2F5D3F)"/>
      <path d="M0 -8 C -3 -28 -4 -52 -1 -70" stroke="var(--ihr-leaf-c, #6FA97B)"
            stroke-width="1.6" fill="none" opacity=".5" stroke-linecap="round"/>
    </g>
    
    <g transform="translate(50 98) rotate(-14) scale(0.9)">
      <path d="M0 0 C -6 -22 -8 -50 -3 -76 C -1.5 -80 1.5 -80 3 -76 C 8 -50 6 -22 0 0 Z" fill="var(--ihr-leaf-b, #3F7A52)"/>
      <path d="M0 -8 C -3 -28 -4 -52 -1 -70" stroke="var(--ihr-leaf-c, #6FA97B)"
            stroke-width="1.6" fill="none" opacity=".5" stroke-linecap="round"/>
    </g>
    
    <g transform="translate(50 98) rotate(2) scale(1)">
      <path d="M0 0 C -6 -22 -8 -50 -3 -76 C -1.5 -80 1.5 -80 3 -76 C 8 -50 6 -22 0 0 Z" fill="var(--ihr-leaf-a, #2F5D3F)"/>
      <path d="M0 -8 C -3 -28 -4 -52 -1 -70" stroke="var(--ihr-leaf-c, #6FA97B)"
            stroke-width="1.6" fill="none" opacity=".5" stroke-linecap="round"/>
    </g>
    
    <g transform="translate(50 98) rotate(17) scale(0.85)">
      <path d="M0 0 C -6 -22 -8 -50 -3 -76 C -1.5 -80 1.5 -80 3 -76 C 8 -50 6 -22 0 0 Z" fill="var(--ihr-leaf-c, #6FA97B)"/>
      <path d="M0 -8 C -3 -28 -4 -52 -1 -70" stroke="var(--ihr-leaf-c, #6FA97B)"
            stroke-width="1.6" fill="none" opacity=".5" stroke-linecap="round"/>
    </g>
    
    <g transform="translate(50 98) rotate(32) scale(0.66)">
      <path d="M0 0 C -6 -22 -8 -50 -3 -76 C -1.5 -80 1.5 -80 3 -76 C 8 -50 6 -22 0 0 Z" fill="var(--ihr-leaf-b, #3F7A52)"/>
      <path d="M0 -8 C -3 -28 -4 -52 -1 -70" stroke="var(--ihr-leaf-c, #6FA97B)"
            stroke-width="1.6" fill="none" opacity=".5" stroke-linecap="round"/>
    </g>
    
    <path d="M27 100 L31 126 H69 L73 100 Z"
          fill="var(--ihr-pot, #C97B4E)"/>
    <path d="M50 100 L69 126 H50 Z"
          fill="var(--ihr-pot-shade, #A45E37)" opacity=".35"/>
    <rect x="24" y="92" width="52" height="9" rx="3"
          fill="var(--ihr-pot, #C97B4E)"/>
    <rect x="24" y="98" width="52" height="3"
          fill="var(--ihr-pot-shade, #A45E37)" opacity=".45"/>
    <ellipse cx="50" cy="96" rx="22" ry="3"
             fill="var(--ihr-soil, #4A3A2C)"/></g></svg>
